#!OML:ASF H:\ManfredObstacles\Project 1\Capture day 2\Session 1\male.ASF
:FULLY-SPECIFIED
:DEGREES
467
root 1.85353 13.7516 -12.9694 -144.066 2.6766 173.201
lowerback 28.3837 1.01956 -6.60062
upperback 9.60261 1.79829 0.475965
thorax -4.95662 1.64178 3.68174
lowerneck -33.818 -0.833916 1.23478
upperneck 19.8432 -1.49393 -0.929527
head 11.9861 -0.700815 -0.842709
rclavicle -3.73715e-014 -2.50469e-014
rhumerus -16.0178 -12.3484 -76.4127
rradius 42.1433
rwrist 19.1639
rhand -4.82617 -6.7862
rfingers 7.12502
rthumb 20.9604 -35.6737
lclavicle -3.73715e-014 -2.50469e-014
lhumerus 0.549917 -24.0447 81.0191
lradius 83.5469
lwrist -29.4409
lhand -25.8707 8.26582
lfingers 7.12502
lthumb 0.670663 38.2445
rfemur -66.5754 -2.2689 14.3576
rtibia 114.102
rfoot -4.27779 -17.6208
rtoes -26.1853
lfemur -59.9059 -4.52561 -28.6695
ltibia 77.7241
lfoot -2.47931 34.7046
ltoes -10.1815
468
root 1.85831 13.8676 -13.185 -144.813 2.75809 173.116
lowerback 28.6007 0.69826 -6.52762
upperback 9.63373 1.41333 0.461984
thorax -4.97979 1.46735 3.74421
lowerneck -33.8232 -0.490756 1.50059
upperneck 20.0152 -1.09157 -1.12935
head 12.0574 -0.528593 -0.886353
rclavicle -2.14687e-014 -7.95139e-015
rhumerus -18.3282 -12.2718 -76.4113
rradius 42.6433
rwrist 18.8582
rhand -4.98931 -6.88462
rfingers 7.12502
rthumb 20.8037 -35.7893
lclavicle -2.14687e-014 -7.95139e-015
lhumerus 0.580204 -24.1926 80.7942
lradius 84.3343
lwrist -29.3735
lhand -25.9255 8.37686
lfingers 7.12502
lthumb 0.617653 38.3557
rfemur -68.715 -2.14043 14.0267
rtibia 113.67
rfoot -5.18311 -17.9635
rtoes -26.368
lfemur -56.9553 -4.40002 -28.7945
ltibia 75.4884
lfoot -2.17117 34.5177
ltoes -10.2288
469
root 1.86571 13.9426 -13.3918 -145.533 2.81651 173.042
lowerback 28.785 0.366345 -6.42006
upperback 9.64871 1.01973 0.445591
thorax -5.00594 1.28732 3.78815
lowerneck -33.8125 -0.158748 1.76738
upperneck 20.1947 -0.701509 -1.3379
head 12.1311 -0.363132 -0.935754
rclavicle 1.59028e-014 8.34896e-015
rhumerus -20.6323 -12.1884 -76.3808
rradius 43.1244
rwrist 18.5695
rhand -5.16318 -6.99375
rfingers 7.12502
rthumb 20.6366 -35.9167
lclavicle 1.59028e-014 8.34896e-015
lhumerus 0.543927 -24.3431 80.5554
lradius 85.0867
lwrist -29.3039
lhand -25.9659 8.4757
lfingers 7.12502
lthumb 0.57872 38.4547
rfemur -71.023 -1.95939 13.7029
rtibia 113.116
rfoot -5.92224 -18.3037
rtoes -26.535
lfemur -54.2433 -4.31509 -28.892
ltibia 73.4028
lfoot -1.7597 34.2829
ltoes -10.1737
470
root 1.87402 14.0561 -13.6191 -146.218 2.8539 172.987
lowerback 28.9317 0.0242956 -6.27155
upperback 9.65155 0.620825 0.424111
thorax -5.02957 1.10333 3.80559
lowerneck -33.826 0.156898 2.03129
upperneck 20.4002 -0.33045 -1.55254
head 12.221 -0.207306 -0.991011
rclavicle 2.22639e-014 2.42517e-014
rhumerus -22.9161 -12.0828 -76.3378
rradius 43.6017
rwrist 18.2451
rhand -5.38022 -7.10927
rfingers 7.12502
rthumb 20.4281 -36.0547
lclavicle 2.22639e-014 2.42517e-014
lhumerus 0.426764 -24.4861 80.3232
lradius 85.8006
lwrist -29.2637
lhand -25.9595 8.53458
lfingers 7.12502
lthumb 0.584891 38.5135
rfemur -72.8824 -1.77926 13.3762
rtibia 111.815
rfoot -6.46005 -18.5897
rtoes -26.6014
lfemur -51.3143 -4.25862 -28.9526
ltibia 71.0054
lfoot -1.28079 33.9721
ltoes -10.0271
471
root 1.8834 14.1707 -13.8527 -146.851 2.84948 172.96
lowerback 29.0334 -0.335116 -6.06893
upperback 9.6387 0.210793 0.41842
thorax -5.05192 0.91162 3.81365
lowerneck -33.825 0.474155 2.31388
upperneck 20.5787 0.0551457 -1.81688
head 12.3004 -0.0496606 -1.06498
rclavicle -2.14687e-014 -1.80894e-014
rhumerus -25.17 -11.887 -76.2679
rradius 44.1059
rwrist 17.7874
rhand -5.62398 -7.24384
rfingers 7.12502
rthumb 20.1938 -36.2142
lclavicle -2.14687e-014 -1.80894e-014
lhumerus 0.220434 -24.6064 80.1137
lradius 86.473
lwrist -29.2342
lhand -25.9312 8.55559
lfingers 7.12502
lthumb 0.612166 38.5345
rfemur -74.528 -1.60328 13.0752
rtibia 110.12
rfoot -6.90121 -18.9089
rtoes -26.6322
lfemur -48.4839 -4.25784 -28.959
ltibia 68.7324
lfoot -0.775991 33.6598
ltoes -9.81819
472
root 1.89548 14.2976 -14.1002 -147.918 2.66081 172.93
lowerback 29.7182 -0.767002 -5.75776
upperback 9.68786 -0.232602 0.439354
thorax -5.27576 0.731639 3.80094
lowerneck -33.8249 0.787338 2.59013
upperneck 20.7283 0.440364 -2.11478
head 12.3713 0.0997615 -1.15126
rclavicle -1.59028e-015 -3.57812e-015
rhumerus -27.3975 -11.6311 -76.1799
rradius 44.678
rwrist 17.2035
rhand -5.87021 -7.41195
rfingers 7.12502
rthumb 19.9571 -36.4072
lclavicle -1.59028e-015 -3.57812e-015
lhumerus -0.0678621 -24.7144 79.9207
lradius 87.1115
lwrist -29.2038
lhand -25.8814 8.52423
lfingers 7.12502
lthumb 0.660328 38.503
rfemur -75.1934 -1.51014 12.8584
rtibia 107.895
rfoot -7.32809 -19.3234
rtoes -26.6802
lfemur -45.0564 -4.35149 -28.8948
ltibia 66.285
lfoot -0.166531 33.2197
ltoes -9.554
473
root 1.89621 14.3659 -14.3042 -146.219 3.89993 173.55
lowerback 26.9765 -0.562982 -5.85572
upperback 9.27562 -0.167824 0.387141
thorax -4.46151 0.627368 3.77437
lowerneck -33.814 1.09989 2.84434
upperneck 20.8404 0.848265 -2.45056
head 12.4291 0.251427 -1.24394
rclavicle 3.97569e-016 -8.15017e-015
rhumerus -29.5815 -11.2964 -76.0591
rradius 45.3292
rwrist 16.5087
rhand -6.13228 -7.53615
rfingers 7.12502
rthumb 19.7052 -36.5574
lclavicle 3.97569e-016 -8.15017e-015
lhumerus -0.428168 -24.7778 79.7446
lradius 87.7183
lwrist -29.2009
lhand -25.7705 8.45185
lfingers 7.12502
lthumb 0.767383 38.4302
rfemur -80.1414 -0.375281 12.3888
rtibia 105.719
rfoot -6.26605 -19.3454
rtoes -26.8016
lfemur -45.3631 -3.6312 -28.8777
ltibia 64.314
lfoot 0.852549 32.599
ltoes -9.21776
474
root 1.90967 14.4852 -14.5561 -146.686 4.08635 173.746
lowerback 26.9535 -0.796595 -5.65653
upperback 9.21528 -0.439509 0.440122
thorax -4.49622 0.491295 3.79882
lowerneck -33.767 1.40725 3.08554
upperneck 20.9225 1.26651 -2.81666
head 12.4723 0.402052 -1.34395
rclavicle -1.19271e-015 1.11319e-014
rhumerus -31.7549 -10.9124 -75.9127
rradius 46.1044
rwrist 15.6992
rhand -6.38252 -7.67395
rfingers 7.12502
rthumb 19.4646 -36.7197
lclavicle -1.19271e-015 1.11319e-014
lhumerus -0.898015 -24.8268 79.591
lradius 88.3108
lwrist -29.1803
lhand -25.6354 8.34865
lfingers 7.12502
lthumb 0.897929 38.3265
rfemur -81.1099 -0.0211185 12.1902
rtibia 102.786
rfoot -6.19917 -19.7581
rtoes -26.7273
lfemur -42.7323 -3.49 -28.7648
ltibia 61.9522
lfoot 1.75667 31.9044
ltoes -8.87702
475
root 1.92434 14.605 -14.8126 -147.116 4.29904 173.968
lowerback 26.9292 -1.00991 -5.4524
upperback 9.12729 -0.692135 0.498098
thorax -4.5642 0.362859 3.82035
lowerneck -33.6903 1.70756 3.3243
upperneck 20.9962 1.68402 -3.20115
head 12.5105 0.549661 -1.45078
rclavicle -3.57812e-015 3.18055e-015
rhumerus -33.9108 -10.4995 -75.7514
rradius 46.9797
rwrist 14.8272
rhand -6.62017 -7.78438
rfingers 7.12502
rthumb 19.2361 -36.853
lclavicle -3.57812e-015 3.18055e-015
lhumerus -1.46971 -24.8861 79.4351
lradius 88.8881
lwrist -29.097
lhand -25.4544 8.21152
lfingers 7.12502
lthumb 1.07267 38.1886
rfemur -81.8169 0.321535 12.0227
rtibia 99.5331
rfoot -5.97846 -20.1439
rtoes -26.4862
lfemur -40.1957 -3.34025 -28.6383
ltibia 59.6508
lfoot 2.76116 31.0881
ltoes -8.49024
476
root 1.9401 14.7255 -15.0755 -147.515 4.53819 174.227
lowerback 26.8835 -1.20797 -5.2442
upperback 9.02154 -0.929099 0.564531
thorax -4.64407 0.240001 3.84421
lowerneck -33.6035 1.99708 3.53468
upperneck 21.0809 2.09878 -3.57188
head 12.554 0.695867 -1.54831
rclavicle 2.40529e-014 1.89839e-014
rhumerus -36.0279 -10.0259 -75.5842
rradius 47.9491
rwrist 13.8861
rhand -6.84816 -7.89934
rfingers 7.12502
rthumb 19.0169 -36.9897
lclavicle 2.40529e-014 1.89839e-014
lhumerus -2.16475 -24.939 79.3027
lradius 89.4522
lwrist -28.9964
lhand -25.2329 8.06692
lfingers 7.12502
lthumb 1.28667 38.0428
rfemur -82.2273 0.664409 11.9
rtibia 95.9323
rfoot -5.60259 -20.4306
rtoes -26.168
lfemur -37.6393 -3.15662 -28.4891
ltibia 57.1495
lfoot 3.97255 30.0289
ltoes -8.07762
477
root 1.95681 14.8441 -15.343 -147.836 4.77239 174.494
lowerback 26.7532 -1.40684 -5.01452
upperback 8.89697 -1.16688 0.636055
thorax -4.70568 0.112827 3.86043
lowerneck -33.5001 2.27743 3.72132
upperneck 21.1714 2.51066 -3.92759
head 12.5993 0.841277 -1.63673
rclavicle 8.94531e-015 1.67973e-014
rhumerus -38.082 -9.51807 -75.4097
rradius 48.9941
rwrist 12.9643
rhand -7.0676 -8.0028
rfingers 7.12502
rthumb 18.8058 -37.1137
lclavicle 8.94531e-015 1.67973e-014
lhumerus -2.94886 -25.0067 79.1834
lradius 89.9977
lwrist -28.8399
lhand -24.9599 7.90647
lfingers 7.12502
lthumb 1.55031 37.8806
rfemur -82.4008 0.951248 11.8034
rtibia 92.0733
rfoot -5.11594 -20.5449
rtoes -25.745
lfemur -35.1966 -2.98508 -28.3288
ltibia 54.6545
lfoot 5.28044 28.8405
ltoes -7.6355
478
root 1.97458 14.9591 -15.6162 -148.084 5.01158 174.777
lowerback 26.5047 -1.60759 -4.75406
upperback 8.76752 -1.40254 0.693369
thorax -4.71836 -0.017317 3.83999
lowerneck -33.4014 2.55311 3.91076
upperneck 21.2859 2.90942 -4.25722
head 12.6567 0.984988 -1.71823
rclavicle -1.88845e-015 1.1281e-014
rhumerus -40.0482 -9.00375 -75.2611
rradius 50.087
rwrist 12.1196
rhand -7.29809 -8.06742
rfingers 7.12502
rthumb 18.5841 -37.1997
lclavicle -1.88845e-015 1.1281e-014
lhumerus -3.82435 -25.093 79.08
lradius 90.5142
lwrist -28.7014
lhand -24.6747 7.74804
lfingers 7.12502
lthumb 1.82573 37.72
rfemur -82.3386 1.20038 11.7388
rtibia 88.0022
rfoot -4.49995 -20.4297
rtoes -25.3623
lfemur -32.8488 -2.79902 -28.1562
ltibia 52.1676
lfoot 6.6434 27.5623
ltoes -7.12708
479
root 1.9937 15.0699 -15.8961 -148.272 5.25299 175.082
lowerback 26.1273 -1.81386 -4.47387
upperback 8.64676 -1.64062 0.74404
thorax -4.66033 -0.152663 3.79733
lowerneck -33.2844 2.84285 4.12177
upperneck 21.3912 3.3173 -4.57933
head 12.7106 1.13593 -1.79829
rclavicle 6.11263e-015 -3.13086e-015
rhumerus -41.8976 -8.44857 -75.1485
rradius 51.2183
rwrist 11.352
rhand -7.5865 -8.09623
rfingers 7.12502
rthumb 18.3067 -37.2548
lclavicle 6.11263e-015 -3.13086e-015
lhumerus -4.77375 -25.1723 78.9885
lradius 90.9863
lwrist -28.5907
lhand -24.389 7.60494
lfingers 7.12502
lthumb 2.10163 37.5743
rfemur -82.0265 1.42653 11.713
rtibia 83.7692
rfoot -3.77647 -20.0682
rtoes -25.1119
lfemur -30.5706 -2.5746 -27.9645
ltibia 49.6915
lfoot 8.06173 26.2003
ltoes -6.64693
480
root 2.01471 15.174 -16.1819 -148.42 5.51292 175.397
lowerback 25.6332 -2.01255 -4.20039
upperback 8.53182 -1.87259 0.789387
thorax -4.53954 -0.288833 3.74574
lowerneck -33.1516 3.13915 4.34076
upperneck 21.4934 3.7306 -4.89312
head 12.7634 1.29145 -1.87519
rclavicle -4.27014e-014 2.65222e-014
rhumerus -43.6298 -7.86398 -75.0572
rradius 52.3798
rwrist 10.6518
rhand -7.928 -8.08484
rfingers 7.12502
rthumb 17.9781 -37.2739
lclavicle -4.27014e-014 2.65222e-014
lhumerus -5.80118 -25.2412 78.9303
lradius 91.4121
lwrist -28.4904
lhand -24.1185 7.46704
lfingers 7.12502
lthumb 2.36295 37.4337
rfemur -81.4819 1.64546 11.7145
rtibia 79.4509
rfoot -3.00141 -19.4629
rtoes -25.0524
lfemur -28.3404 -2.31308 -27.765
ltibia 47.2344
lfoot 9.52928 24.7843
ltoes -6.18765
